<svg width="359" height="362" viewBox="0 0 359 362" fill="none" xmlns="http://www.w3.org/2000/svg">
<rect width="359" height="362" fill="#F6F6F6"/>
<path d="M216.5 89.5L140 62.5L116.5 85.5L187 110.187V163.5L116.5 139.155L93 162L187 194.5L251.5 132.5H216.5V89.5Z" fill="#303030" stroke="black"/>
<path d="M30.618 236.361H39.663V242.793H39.797C40.2437 241.721 40.8467 240.738 41.606 239.845C42.3653 238.907 43.2363 238.125 44.219 237.5C45.2017 236.83 46.2513 236.316 47.368 235.959C48.4847 235.602 49.646 235.423 50.852 235.423C51.4773 235.423 52.1697 235.535 52.929 235.758V244.602C52.4823 244.513 51.9463 244.446 51.321 244.401C50.6957 244.312 50.0927 244.267 49.512 244.267C47.77 244.267 46.296 244.557 45.09 245.138C43.884 245.719 42.9013 246.523 42.142 247.55C41.4273 248.533 40.9137 249.694 40.601 251.034C40.2883 252.374 40.132 253.826 40.132 255.389V271H30.618V236.361ZM56.659 223.162H66.173V241.185H66.374C67.58 239.175 69.121 237.723 70.997 236.83C72.873 235.892 74.7043 235.423 76.491 235.423C79.037 235.423 81.114 235.78 82.722 236.495C84.3747 237.165 85.67 238.125 86.608 239.376C87.546 240.582 88.1937 242.078 88.551 243.865C88.953 245.607 89.154 247.55 89.154 249.694V271H79.64V251.436C79.64 248.577 79.1933 246.456 78.3 245.071C77.4067 243.642 75.821 242.927 73.543 242.927C70.9523 242.927 69.0763 243.709 67.915 245.272C66.7537 246.791 66.173 249.314 66.173 252.843V271H56.659V223.162ZM106.157 231.001H96.6428V223.162H106.157V231.001ZM96.6428 236.361H106.157V271H96.6428V236.361ZM113.648 236.361H122.693V241.185H122.894C124.1 239.175 125.664 237.723 127.584 236.83C129.505 235.892 131.47 235.423 133.48 235.423C136.026 235.423 138.103 235.78 139.711 236.495C141.364 237.165 142.659 238.125 143.597 239.376C144.535 240.582 145.183 242.078 145.54 243.865C145.942 245.607 146.143 247.55 146.143 249.694V271H136.629V251.436C136.629 248.577 136.183 246.456 135.289 245.071C134.396 243.642 132.81 242.927 130.532 242.927C127.942 242.927 126.066 243.709 124.904 245.272C123.743 246.791 123.162 249.314 123.162 252.843V271H113.648V236.361ZM161.806 253.714C161.806 255.099 161.94 256.461 162.208 257.801C162.476 259.096 162.923 260.28 163.548 261.352C164.218 262.379 165.089 263.206 166.161 263.831C167.233 264.456 168.573 264.769 170.181 264.769C171.789 264.769 173.129 264.456 174.201 263.831C175.318 263.206 176.189 262.379 176.814 261.352C177.484 260.28 177.953 259.096 178.221 257.801C178.489 256.461 178.623 255.099 178.623 253.714C178.623 252.329 178.489 250.967 178.221 249.627C177.953 248.287 177.484 247.103 176.814 246.076C176.189 245.049 175.318 244.222 174.201 243.597C173.129 242.927 171.789 242.592 170.181 242.592C168.573 242.592 167.233 242.927 166.161 243.597C165.089 244.222 164.218 245.049 163.548 246.076C162.923 247.103 162.476 248.287 162.208 249.627C161.94 250.967 161.806 252.329 161.806 253.714ZM152.292 253.714C152.292 250.945 152.716 248.443 153.565 246.21C154.414 243.932 155.62 242.011 157.183 240.448C158.746 238.84 160.622 237.612 162.811 236.763C165 235.87 167.456 235.423 170.181 235.423C172.906 235.423 175.362 235.87 177.551 236.763C179.784 237.612 181.683 238.84 183.246 240.448C184.809 242.011 186.015 243.932 186.864 246.21C187.713 248.443 188.137 250.945 188.137 253.714C188.137 256.483 187.713 258.985 186.864 261.218C186.015 263.451 184.809 265.372 183.246 266.98C181.683 268.543 179.784 269.749 177.551 270.598C175.362 271.447 172.906 271.871 170.181 271.871C167.456 271.871 165 271.447 162.811 270.598C160.622 269.749 158.746 268.543 157.183 266.98C155.62 265.372 154.414 263.451 153.565 261.218C152.716 258.985 152.292 256.483 152.292 253.714ZM194.591 236.361H203.569V241.051H203.703C204.954 239.264 206.45 237.88 208.192 236.897C209.979 235.914 212.011 235.423 214.289 235.423C216.478 235.423 218.465 235.847 220.252 236.696C222.083 237.545 223.468 239.041 224.406 241.185C225.433 239.666 226.818 238.326 228.56 237.165C230.347 236.004 232.446 235.423 234.858 235.423C236.689 235.423 238.387 235.646 239.95 236.093C241.513 236.54 242.853 237.254 243.97 238.237C245.087 239.22 245.958 240.515 246.583 242.123C247.208 243.686 247.521 245.585 247.521 247.818V271H238.007V251.369C238.007 250.208 237.962 249.113 237.873 248.086C237.784 247.059 237.538 246.165 237.136 245.406C236.734 244.647 236.131 244.044 235.327 243.597C234.568 243.15 233.518 242.927 232.178 242.927C230.838 242.927 229.744 243.195 228.895 243.731C228.091 244.222 227.443 244.892 226.952 245.741C226.505 246.545 226.193 247.483 226.014 248.555C225.88 249.582 225.813 250.632 225.813 251.704V271H216.299V251.57C216.299 250.543 216.277 249.538 216.232 248.555C216.187 247.528 215.986 246.59 215.629 245.741C215.316 244.892 214.758 244.222 213.954 243.731C213.195 243.195 212.056 242.927 210.537 242.927C210.09 242.927 209.487 243.039 208.728 243.262C208.013 243.441 207.299 243.82 206.584 244.401C205.914 244.937 205.333 245.741 204.842 246.813C204.351 247.84 204.105 249.203 204.105 250.9V271H194.591V236.361ZM278.626 248.555C278 244.58 275.655 242.592 271.591 242.592C270.072 242.592 268.799 242.949 267.772 243.664C266.744 244.334 265.896 245.227 265.226 246.344C264.6 247.416 264.154 248.622 263.886 249.962C263.618 251.257 263.484 252.553 263.484 253.848C263.484 255.099 263.618 256.372 263.886 257.667C264.154 258.962 264.578 260.146 265.159 261.218C265.784 262.245 266.61 263.094 267.638 263.764C268.665 264.434 269.916 264.769 271.39 264.769C273.668 264.769 275.41 264.144 276.616 262.893C277.866 261.598 278.648 259.878 278.961 257.734H288.14C287.514 262.335 285.728 265.841 282.78 268.253C279.832 270.665 276.057 271.871 271.457 271.871C268.866 271.871 266.476 271.447 264.288 270.598C262.144 269.705 260.312 268.476 258.794 266.913C257.275 265.35 256.091 263.496 255.243 261.352C254.394 259.163 253.97 256.774 253.97 254.183C253.97 251.503 254.349 249.024 255.109 246.746C255.913 244.423 257.074 242.436 258.593 240.783C260.111 239.086 261.965 237.768 264.154 236.83C266.342 235.892 268.844 235.423 271.658 235.423C273.712 235.423 275.678 235.691 277.554 236.227C279.474 236.763 281.172 237.589 282.646 238.706C284.164 239.778 285.393 241.14 286.331 242.793C287.269 244.401 287.805 246.322 287.939 248.555H278.626ZM311.001 264.769C312.565 264.769 313.86 264.456 314.887 263.831C315.959 263.206 316.808 262.402 317.433 261.419C318.103 260.392 318.572 259.208 318.84 257.868C319.108 256.528 319.242 255.166 319.242 253.781C319.242 252.396 319.086 251.034 318.773 249.694C318.505 248.354 318.036 247.17 317.366 246.143C316.696 245.071 315.825 244.222 314.753 243.597C313.726 242.927 312.453 242.592 310.934 242.592C309.371 242.592 308.053 242.927 306.981 243.597C305.954 244.222 305.105 245.049 304.435 246.076C303.81 247.103 303.363 248.287 303.095 249.627C302.827 250.967 302.693 252.352 302.693 253.781C302.693 255.166 302.827 256.528 303.095 257.868C303.408 259.208 303.877 260.392 304.502 261.419C305.172 262.402 306.043 263.206 307.115 263.831C308.187 264.456 309.483 264.769 311.001 264.769ZM293.514 236.361H302.559V240.783H302.693C303.855 238.907 305.329 237.545 307.115 236.696C308.902 235.847 310.867 235.423 313.011 235.423C315.736 235.423 318.081 235.937 320.046 236.964C322.012 237.991 323.642 239.354 324.937 241.051C326.233 242.748 327.193 244.736 327.818 247.014C328.444 249.247 328.756 251.592 328.756 254.049C328.756 256.372 328.444 258.605 327.818 260.749C327.193 262.893 326.233 264.791 324.937 266.444C323.687 268.097 322.101 269.414 320.18 270.397C318.304 271.38 316.093 271.871 313.547 271.871C311.403 271.871 309.416 271.447 307.584 270.598C305.798 269.705 304.324 268.409 303.162 266.712H303.028V283.127H293.514V236.361Z" fill="#303030"/>
</svg>
